<svg width="24" height="27" viewBox="0 0 24 27" fill="none" xmlns="http://www.w3.org/2000/svg">
<g clip-path="url(#clip0_413_132)">
<path d="M14.9999 2.24999H8.99994C8.44794 2.24999 7.99994 1.74599 7.99994 1.12499C7.99994 0.503992 8.44794 -7.62939e-06 8.99994 -7.62939e-06H14.9999C15.5519 -7.62939e-06 15.9999 0.503992 15.9999 1.12499C15.9999 1.74599 15.5519 2.24999 14.9999 2.24999Z" fill="#3A7FD5"/>
<path d="M17.419 27H7.47303C4.34603 27 2.14903 25.1179 2.00803 22.3155C1.95303 21.2209 2.20703 20.1634 2.74403 19.2589L8.47303 9.88986C8.81703 9.32398 9.00003 8.66248 9.00003 7.97623V1.68748C9.00003 1.06648 9.44803 0.562482 10 0.562482C10.552 0.562482 11 1.06648 11 1.68748V7.97623C11 9.12036 10.695 10.2229 10.119 11.1645L4.39903 20.52C4.11303 21.0026 3.97403 21.5831 4.00403 22.1872C4.08303 23.7442 5.44403 24.75 7.47303 24.75H17.42C18.769 24.75 19.925 23.6014 19.996 22.1884C20.027 21.5842 19.888 21.0037 19.593 20.5076L13.881 11.1645C13.305 10.2229 13 9.12036 13 7.97623V1.68748C13 1.06648 13.448 0.562482 14 0.562482C14.552 0.562482 15 1.06648 15 1.68748V7.97623C15 8.66248 15.183 9.32398 15.528 9.88873L21.248 19.2442C21.793 20.1622 22.047 21.2197 21.992 22.3144C21.86 24.9424 19.851 27 17.419 27Z" fill="#3A7FD5"/>
<path d="M16.846 22.5H7.154C6.518 22.5 6 21.9409 6 21.2546C6 20.9858 6.078 20.7304 6.226 20.5144C6.239 20.4953 6.253 20.4761 6.268 20.4581L9.095 16.3114C9.229 16.1156 9.432 15.9952 9.652 15.9829C9.833 15.9727 10.008 15.9255 10.146 15.8501L10.77 15.5002C11.52 15.0885 12.482 15.0874 13.227 15.4969L13.863 15.8535C13.994 15.9244 14.169 15.9716 14.35 15.9829C14.569 15.9952 14.773 16.1156 14.907 16.3114L17.734 20.457C17.749 20.475 17.763 20.4941 17.776 20.5133C17.922 20.7293 18 20.9858 18 21.2546C18 21.9409 17.482 22.5 16.846 22.5Z" fill="#FF8007"/>
</g>
<defs>
<clipPath id="clip0_413_132">
<rect width="24" height="27" fill="white"/>
</clipPath>
</defs>
</svg>
