<svg width="27" height="31" viewBox="0 0 27 31" fill="none" xmlns="http://www.w3.org/2000/svg">
<g filter="url(#filter0_d_1429_668)">
<path d="M12.7268 23L9.97197 17.9797C6.66953 16.4499 4.55221 13.0959 4.56475 9.37922C4.58147 4.20102 8.7137 0 13.7823 0C13.7928 0 13.8032 0 13.8137 0C16.2759 0.00853432 18.5876 0.994249 20.3224 2.77792C22.0572 4.5616 23.0082 6.92774 22.9999 9.43896C22.9915 11.9523 22.0259 14.3121 20.2785 16.0829C18.5395 17.8474 16.2341 18.816 13.7823 18.816C13.7719 18.816 13.7614 18.816 13.751 18.816C13.5315 18.816 13.312 18.8075 13.0926 18.7904L12.7268 23ZM13.7823 1.06679C9.28849 1.06679 5.62446 4.79202 5.60983 9.38135C5.59938 12.7311 7.53904 15.7501 10.5489 17.0729L10.7119 17.1433L11.9869 19.4647L12.1499 17.602L12.6913 17.6746C13.0424 17.7215 13.4019 17.7471 13.7572 17.7493C15.9414 17.7642 17.9961 16.8958 19.5449 15.3255C21.0937 13.7552 21.9506 11.6622 21.9569 9.43469C21.9632 7.20724 21.1208 5.10993 19.5825 3.52894C18.042 1.94796 15.9916 1.07319 13.8095 1.06679C13.8011 1.06679 13.7907 1.06679 13.7823 1.06679Z" fill="white"/>
<path d="M10.7663 8.30813L13.193 10.6252L17.7641 6.16602L19.6557 7.91555L13.1825 14.0773L8.94995 10.1003L10.7663 8.30813Z" fill="white"/>
</g>
<defs>
<filter id="filter0_d_1429_668" x="0.564697" y="0" width="26.4353" height="31" filterUnits="userSpaceOnUse" color-interpolation-filters="sRGB">
<feFlood flood-opacity="0" result="BackgroundImageFix"/>
<feColorMatrix in="SourceAlpha" type="matrix" values="0 0 0 0 0 0 0 0 0 0 0 0 0 0 0 0 0 0 127 0" result="hardAlpha"/>
<feOffset dy="4"/>
<feGaussianBlur stdDeviation="2"/>
<feComposite in2="hardAlpha" operator="out"/>
<feColorMatrix type="matrix" values="0 0 0 0 0 0 0 0 0 0 0 0 0 0 0 0 0 0 0.25 0"/>
<feBlend mode="normal" in2="BackgroundImageFix" result="effect1_dropShadow_1429_668"/>
<feBlend mode="normal" in="SourceGraphic" in2="effect1_dropShadow_1429_668" result="shape"/>
</filter>
</defs>
</svg>
