<svg width="28" height="27" viewBox="0 0 28 27" fill="none" xmlns="http://www.w3.org/2000/svg">
<path d="M0.724565 26.3014C0.277171 25.8701 0.000137329 25.2745 0.000137329 24.6176V13.5H14.0001V27H2.47071C1.78955 27 1.1719 26.7329 0.724565 26.3014Z" fill="#3A7FD5"/>
<path fill-rule="evenodd" clip-rule="evenodd" d="M1.2745 25.7711C0.966566 25.4742 0.77791 25.067 0.77791 24.6176V14.25H13.2223V26.25H2.47071C2.00475 26.25 1.5824 26.068 1.2745 25.7711ZM14.0001 27V13.5H0.000137329V24.6176C0.000137329 25.2745 0.277171 25.8701 0.724565 26.3014C1.1719 26.7329 1.78955 27 2.47071 27H14.0001Z" fill="white"/>
<path d="M13.9999 0H2.45135C1.77548 0 1.16265 0.265062 0.71879 0.693123C0.274932 1.12118 0 1.71208 0 2.36381V13.5H13.9999V0Z" fill="#FF8007"/>
<path fill-rule="evenodd" clip-rule="evenodd" d="M13.2222 0.75H2.45135C1.99069 0.75 1.57321 0.929841 1.26879 1.22342C0.964283 1.51709 0.777774 1.91966 0.777774 2.36381V12.75H13.2222V0.75ZM2.45135 0C1.77548 0 1.16265 0.265062 0.71879 0.693123C0.274932 1.12118 0 1.71208 0 2.36381V13.5H13.9999V0H2.45135Z" fill="white"/>
<path d="M14.0001 0H25.5487C26.2245 0 26.8374 0.265062 27.2812 0.693123C27.7251 1.12118 28 1.71208 28 2.36381V13.5H14.0001V0Z" fill="#3A7FD5"/>
<path fill-rule="evenodd" clip-rule="evenodd" d="M14.7778 0.75H25.5487C26.0093 0.75 26.4268 0.929841 26.7312 1.22342C27.0357 1.51709 27.2222 1.91966 27.2222 2.36381V12.75H14.7778V0.75ZM25.5487 0C26.2245 0 26.8374 0.265062 27.2812 0.693123C27.7251 1.12118 28 1.71208 28 2.36381V13.5H14.0001V0H25.5487Z" fill="white"/>
<path d="M8.54291 19.8809L11.2442 17.2761C12.0068 16.5407 10.8531 15.4161 10.0842 16.1575L7.38294 18.7623L4.68167 16.1575C3.91906 15.4222 2.7528 16.5346 3.5217 17.2761L6.22297 19.8809L3.5217 22.4857C2.75591 23.2241 3.91588 24.3427 4.68167 23.6042L7.38294 20.9994L10.0842 23.6042C10.8469 24.3397 12.0131 23.2271 11.2442 22.4857L8.54291 19.8809Z" fill="white"/>
<path d="M10.6637 6.32809H8.2028V3.95504C8.2028 2.91233 6.56219 2.90805 6.56219 3.95504V6.32809H4.10126C3.01993 6.32809 3.0155 7.91012 4.10126 7.91012H6.56219V10.2832C6.56219 11.3259 8.2028 11.3302 8.2028 10.2832V7.91012H10.6637C11.7451 7.91012 11.7495 6.32809 10.6637 6.32809Z" fill="white"/>
<path d="M23.915 7.94994H17.3071C16.2183 7.94994 16.2138 6.29994 17.3071 6.29994H23.915C25.0038 6.29994 25.0082 7.94994 23.915 7.94994Z" fill="white"/>
<path d="M27.2756 26.3014C27.723 25.8701 28 25.2745 28 24.6176V13.5H14.0001V27H25.5294C26.2106 27 26.8282 26.7329 27.2756 26.3014Z" fill="#FF8007"/>
<path fill-rule="evenodd" clip-rule="evenodd" d="M26.7256 25.7711C27.0336 25.4742 27.2222 25.067 27.2222 24.6176V14.25H14.7778V26.25H25.5294C25.9954 26.25 26.4177 26.068 26.7256 25.7711ZM14.0001 27V13.5H28V24.6176C28 25.2745 27.723 25.8701 27.2756 26.3014C26.8282 26.7329 26.2106 27 25.5294 27H14.0001Z" fill="white"/>
<path d="M23.8985 19.0898H17.336C16.2547 19.0898 16.2503 17.5078 17.336 17.5078H23.8985C24.9798 17.5078 24.9843 19.0898 23.8985 19.0898Z" fill="white"/>
<path d="M23.8982 22.2539H17.3357C16.2544 22.2539 16.25 20.6719 17.3357 20.6719H23.8982C24.9795 20.6719 24.984 22.2539 23.8982 22.2539Z" fill="white"/>
</svg>
