<svg width="26" height="26" viewBox="0 0 26 26" fill="none" xmlns="http://www.w3.org/2000/svg">
<path d="M13 25.1875C11.4197 25.1875 9.96176 23.8768 8.89489 21.4968C7.87445 19.2207 7.3125 16.2029 7.3125 13C7.3125 9.79707 7.87445 6.77955 8.89489 4.50323C9.96176 2.12321 11.4197 0.8125 13 0.8125C14.5803 0.8125 16.0382 2.12321 17.1051 4.50323C18.1256 6.77955 18.6875 9.79707 18.6875 13C18.6875 16.2029 18.1256 19.2207 17.1051 21.4968C16.0382 23.8768 14.5803 25.1875 13 25.1875ZM13 1.625C11.777 1.625 10.551 2.7952 9.6363 4.83559C8.66171 7.00964 8.125 9.90915 8.125 13C8.125 16.0909 8.66171 18.9904 9.6363 21.1644C10.551 23.2048 11.777 24.375 13 24.375C14.223 24.375 15.449 23.2048 16.3637 21.1644C17.3383 18.9904 17.875 16.0909 17.875 13C17.875 9.90915 17.3383 7.00964 16.3637 4.83559C15.449 2.7952 14.223 1.625 13 1.625Z" fill="#3A7FD5"/>
<path d="M20.0496 21.5316C19.3634 21.5264 18.6791 21.4607 18.0044 21.3352C15.3555 20.8608 12.333 19.577 9.49351 17.7203C7.38766 16.3431 5.54328 14.7524 4.1597 13.1198C2.78805 11.5014 1.93584 9.92311 1.69523 8.55552C1.51075 7.50674 1.68467 6.61812 2.21234 5.91434C3.18658 4.61515 5.24073 4.17142 7.99576 4.66476C10.6447 5.13916 13.6672 6.42296 16.5067 8.27973C18.6125 9.65687 20.4569 11.2476 21.8405 12.8802C23.2122 14.4986 24.0644 16.0769 24.305 17.4444C24.4895 18.4933 24.3155 19.3819 23.7879 20.0857C23.0731 21.0387 21.7771 21.5316 20.0496 21.5316ZM5.96233 5.28277C4.50415 5.28277 3.41387 5.66648 2.86264 6.40174C2.47503 6.91864 2.35158 7.59596 2.49565 8.41476C2.94958 10.9944 5.87103 14.3804 9.9384 17.0403C12.6884 18.8386 15.6038 20.0799 18.1476 20.5354C20.5496 20.9656 22.3686 20.624 23.1376 19.5983C23.5252 19.0814 23.6486 18.404 23.5046 17.5852C23.0506 15.0056 20.1292 11.6196 16.0618 8.95974C13.3118 7.16137 10.3964 5.92013 7.85256 5.46457C7.22904 5.34858 6.59652 5.28775 5.96233 5.28277Z" fill="#3A7FD5"/>
<path d="M5.95051 21.5316C4.22268 21.5316 2.9271 21.039 2.2124 20.0857C1.68473 19.3819 1.51081 18.4933 1.69529 17.4444C1.9359 16.0769 2.78811 14.4986 4.15976 12.8802C5.54334 11.2477 7.38772 9.65688 9.49357 8.27974C12.3329 6.42298 15.3554 5.13918 18.0045 4.66478C20.7598 4.17139 22.8135 4.61512 23.7877 5.91435C24.3154 6.61813 24.4893 7.50675 24.3048 8.55554C24.0642 9.92313 23.212 11.5015 21.8404 13.1199C20.4568 14.7524 18.6124 16.3431 16.5066 17.7203C13.6672 19.5771 10.6447 20.8609 7.99562 21.3353C7.32102 21.4607 6.63666 21.5264 5.95051 21.5316ZM9.93826 8.95976C5.87088 11.6196 2.94944 15.0054 2.49551 17.5853C2.35144 18.4041 2.47489 19.0814 2.8625 19.5983C3.63153 20.6241 5.45031 20.9656 7.85242 20.5354C10.3963 20.0799 13.3114 18.8386 16.0617 17.0403C20.1292 14.3804 23.0505 10.9947 23.5044 8.41477C23.6485 7.59597 23.525 6.91865 23.1374 6.40175C22.3684 5.37597 20.5496 5.03442 18.1475 5.46458C15.6037 5.92014 12.6883 7.16139 9.93826 8.95976Z" fill="#3A7FD5"/>
<path d="M13 15.8438C14.5706 15.8438 15.8438 14.5706 15.8438 13C15.8438 11.4294 14.5706 10.1562 13 10.1562C11.4294 10.1562 10.1562 11.4294 10.1562 13C10.1562 14.5706 11.4294 15.8438 13 15.8438Z" fill="#FF8007"/>
<path d="M4.5 16C4.5 16.8284 3.82843 17.5 3 17.5C2.17157 17.5 1.5 16.8284 1.5 16C1.5 15.1716 2.17157 14.5 3 14.5C3.82843 14.5 4.5 15.1716 4.5 16Z" fill="#FF8007" stroke="white"/>
<path d="M22.5 21C22.5 21.8284 21.8284 22.5 21 22.5C20.1716 22.5 19.5 21.8284 19.5 21C19.5 20.1716 20.1716 19.5 21 19.5C21.8284 19.5 22.5 20.1716 22.5 21Z" fill="#FF8007" stroke="white"/>
<path d="M16.5 2C16.5 2.82843 15.8284 3.5 15 3.5C14.1716 3.5 13.5 2.82843 13.5 2C13.5 1.17157 14.1716 0.5 15 0.5C15.8284 0.5 16.5 1.17157 16.5 2Z" fill="#FF8007" stroke="white"/>
</svg>
